<svg xmlns="http://www.w3.org/2000/svg" version="1.1" xmlns:xlink="http://www.w3.org/1999/xlink" width="512" height="512" x="0" y="0" viewBox="0 0 500 500" style="enable-background:new 0 0 512 512" xml:space="preserve" class=""><g><g data-name="圖層 4"><path d="M306.27 245.26c7.22-3.17 14.78-5.46 22.25-7.94 19.28-6.31 38.47-13.88 54.91-26 43.86-31.13 58.1-93.21 31.74-140.19-20.25-37.42-62.1-60.79-104.11-62.93-34-1.06-66.55 18.35-87 44.75-13.33 18.63-20.9 41-24.45 63.47a191.65 191.65 0 0 0 1.39 63.75c4.14 19.8 7.34 40.23 3.64 60.41a10.24 10.24 0 0 0-11.27 11.73c-3.14.64-5.34 3-6.76 5.71-1.33 2.07-2.83 4.38-2.85 7a12.24 12.24 0 0 0-5.65 7.64c-2 7.77 5.84 12.59 10.94 16.9a15.46 15.46 0 0 0-1.77 12.83c1 3 3.7 5 6.22 6.72a64.35 64.35 0 0 0 11.19 6.14c8.56 4 14.82 3.5 18.75-5.91 4.84 1.63 10.11 3.61 15.26 2.56 5.19-1.71 6.44-7.77 7.93-12.37a12.26 12.26 0 0 0 6.79-12.58c4.68-2 7.17-8 4.68-12.55 15.26-10.93 31.02-21.47 48.17-29.14zm-40.42-113a95.31 95.31 0 0 1-3.59 12.93c-5.42-3.89-11.1-9.2-12.65-15.94-1.48-6 3.25-13.69 10-13.52 2.65.39 4.48 2.58 5.65 5.17 1.5 3.45 1.32 7.52.59 11.39zm24.82 13.51c-.22-5.41.67-11.29 3.78-15.85 1.85-2.78 5.4-5.77 8.45-3.3 7.44 7.59-3.33 22.32-11.39 24.95a27.9 27.9 0 0 1-.84-5.77zm14.69 23.51c-.15-.05-.51-.28 0 .03zm-58 91.32c-1.26 2.36-2.48 4.73-3.59 7.16a59.29 59.29 0 0 1-28.18-17.2c18.6-31.53 36.87-63.55 50.25-97.69 6.83 3.32 14.47 5.58 22.16 4.86a35.08 35.08 0 0 0 16.16 16.37 747.39 747.39 0 0 0-56.77 86.53zm-47.48-12.3a5.69 5.69 0 0 1 5-3.23c6.68 8.63 14.57 16.67 24.52 21.6a68.19 68.19 0 0 0 16.2 6c2 .53 4.25.6 6.16 1.49a3.64 3.64 0 0 0 1.33 1.6 6.28 6.28 0 0 1-.56 4.52c-2.67 5-9.42 3.53-13.48 1.54-3.35-1.63-6.55-3.68-9.79-5.54-7.27-4.16-14.58-8.31-21.55-13-5.15-2.94-10.8-8.61-7.83-14.98zm14 63.79c-2 1.05-4.25.17-6.2-.47a52.42 52.42 0 0 1-14.3-8.05c-.16-.19-.77-.69-.88-1.05a11.4 11.4 0 0 1 1.28-9.36A109.36 109.36 0 0 0 218 307.11c-.95 1.95-2.07 3.89-4.09 4.98zm24.84-8.09a7.87 7.87 0 0 1-1.95 2.71 6.84 6.84 0 0 1-.65.37c.07-.06-.44.07-.38.09-7.11-.12-13.61-3.46-20-6.21-9.23-4.08-17.41-10.11-25.23-16.42-2.28-1.94-4.73-3.83-6.48-6.28-1.27-2.53-.06-5.59 1.83-7.81 2.17 2.54 5.58 4.41 8.16 6.14 6.21 4.17 12.47 8.28 18.83 12.2 8.44 5.06 17.27 10.43 27.19 11.78a25.12 25.12 0 0 1-1.32 3.43zm9-14.12a7.13 7.13 0 0 1-.65 1.92 6.34 6.34 0 0 1-6.9 2.85c-6.37-1.18-12.53-4.27-18.21-7.38-7.13-4.16-14-8.68-20.92-13.23-3.31-2.2-6.83-4.28-9.94-6.77a6 6 0 0 1-1.47-1.79c0-.16 0-.85-.06-.79a2.51 2.51 0 0 1 0-.27 7 7 0 0 1 1-2.12c.84-1.3 1.65-3.11 2.86-3.93 0 .06.27-.12.53-.25l.5-.1c-.69.16-.05 0 .27 0s.63.29.95.37a19.23 19.23 0 0 0 4.2 4.67c7 5.55 15 9.88 22.66 14.32 8 4.11 15.83 10.87 25.21 10.87a5.75 5.75 0 0 1-.07 1.63zm9.16-22c-1.11.79-2.21 1.59-3.31 2.4a19.17 19.17 0 0 0-3.72-1.18c6.28-12.86 13.95-25 21.53-37.11 11.94-18.81 24.53-37.48 38.24-55.17 9.14 4.06 24.17 9.95 33.51 4.37 4.69-3.11 6.35-10.07 4.6-15.25a18.74 18.74 0 0 0-12.2-11.83c-12.71-3.22-21.28 7.32-28.26 16.2-5.92-2.93-11.14-7.48-13.9-13.63 11.76-3.45 23.72-21.21 14.48-32.16a11 11 0 0 0-16.69.11c-6.68 7.42-7.52 18.93-4.94 28.16-6.54.5-12.94-1.58-18.68-4.45 2.45-7.61 5.38-15.49 4.48-23.61-.78-6.07-4.7-11.93-10.81-13.63-6.43-1.79-13 2.39-16 7.94-6.35 12.26 5.92 24.68 15.37 30.86-13 33.48-30.84 64.85-49 95.78-.54-.74-1.06-1.48-1.57-2.24 3.22-15.11 2.13-30.87 0-46.05-1.34-9-3.57-17.84-4.83-26.86-5.3-38.42.6-79.7 22.42-112.34 15.53-21.2 39-37.1 64.71-42.83 38.69-7.09 83.54 12.68 107.74 43 33.42 41.37 29 102.87-9.55 139.31-15.16 14.38-33.89 23.56-53.57 30.55-7.86 2.81-15.83 5.26-23.71 8-20.37 7.31-38.71 19.31-56.38 31.68zm65.82-105.75a16.05 16.05 0 0 1 10.44-3.52c.26 0 .63.09.91.15.11 0 1.23.32.71.15a11.84 11.84 0 0 1 7.72 10.09c0 2.89-.68 6.28-3.24 8-6.82 4-19.78-1.07-26.57-4 2.69-3.41 7.96-9.26 10.03-10.87zM185.56 469.38a3.13 3.13 0 0 0 3.18-.52c31.82-21.16 61-77.19 51.18-115.37-.45-1.52-2.6-1.8-3.81-1.19a3.12 3.12 0 0 0-1.53 3.87c8 33.52-17 83.92-44.4 104.8.86-9.9.14-19.93-3.63-29.21-.93-2.5-4.6-1.58-5.37.53-7.35 21.26-19.31 39.31-39.88 49.64a112.84 112.84 0 0 0-3.79-24.13c-.7-2.57-3.63-2.82-5.21-.84-.49.61-1 1.21-1.51 1.8-1.69 1.85-3.49 3.6-5.35 5.28a203.71 203.71 0 0 1-26.22 19.5l6.15-42.26c.38-2.62-2.92-3.75-4.69-2.17-4.56 4.07-10.64 6.28-16.05 9.49a149.07 149.07 0 0 1 13.19-43.32 67.19 67.19 0 0 1 6.2-10.61 2.72 2.72 0 0 0-3.49-4L78 399.52c3.23-12 8.74-23.15 14.4-34.11 9.08-17.08 19.46-34 32.71-48.18 4.25-4.32 8.75-8.73 14.46-11a3.06 3.06 0 0 0 1.53-3.88c-.71-1.54-2.4-1.74-3.81-1.19-6.2 2.44-11.45 7.35-16 12.1-18.29 19.4-45.61 64.32-49.75 90.59-.18 2.36 2 3.4 4 2.61l19.25-7.59a122.65 122.65 0 0 0-6.9 15.26c-4.8 12.87-8.76 26.35-9.48 40.14a2.78 2.78 0 0 0 4.69 2.17c4.44-3.95 10.31-6.16 15.6-9.23q-2.59 17.87-5.2 35.75l-.87 6a2.72 2.72 0 0 0 4 2.62c13-7.74 25.59-16.54 36.38-27.18a106.48 106.48 0 0 1 2.62 22 2.73 2.73 0 0 0 4 2.62c20.85-9.58 35.21-26 43.77-47.08 2 8.11 1.08 16.49.57 24.82a2.65 2.65 0 0 0 1.59 2.62z" fill="#6d28d9" opacity="1" data-original="#000000" class=""></path><path d="M155.57 341.62c3.75-3.2 7.65-6.22 11.66-9.09 3-2.62-.68-6.54-3.78-4.29-14.5 10.4-28 23-37.2 38.47a87.36 87.36 0 0 0-6.62 13.62c-.86 2.29 1.13 3.87 3.25 3.75l3.94-.23a68 68 0 0 0-13.68 39.68c-.07 2 2.17 4 4.2 2.81 3.32-1.93 6.64-2.46 10.24-3.35a154.9 154.9 0 0 0-5.13 22.07 2.7 2.7 0 0 0 1.55 2.73 3.28 3.28 0 0 0 3.32-.32 89.16 89.16 0 0 0 18.13-14.29l.3 5.4c.13 2.38 3.31 2.77 4.85 1.65 8.19-6 14.56-14.34 19.11-23.37-.18 2.08-.41 4.16-.71 6.22-.34 2.27 2.31 3.66 4.2 2.8 9.92-4.51 17.26-12.5 22.7-21.79a78.68 78.68 0 0 0 11.6-34.34 131.24 131.24 0 0 0 .33-21c-.08-1.6-2-2.51-3.41-2.28a3 3 0 0 0-2.5 3.26c.64 11.49.15 23.49-3.29 34.55-4.41 12.57-11.58 26.41-23 33.84a66.62 66.62 0 0 0 .19-12.47c-.23-2.11-.7-4.43-2.14-6.07-1.56-1.8-5.06-.94-5.3 1.55-1.36 12-8.52 22.74-17 31l-.45-8.15c-.17-2.93-4.85-2.94-5.75-.48a16 16 0 0 1-3.19 5 74.22 74.22 0 0 1-12.37 10.61c1.38-6.62 2.72-13.2 5.67-19.42 1.18-2.49-1.89-4.4-4-3.52-3.89 1.34-7.94 1.92-11.87 3.19.87-13.78 7.16-26.52 15.89-37a2.67 2.67 0 0 0 .11-3.13 3.08 3.08 0 0 0-3-1.25l-5.53.32c6.33-14.39 16.82-26.54 28.68-36.68z" fill="#6d28d9" opacity="1" data-original="#000000" class=""></path></g></g></svg>